# 3ds Max Wavefront OBJ Exporter v0.97b - (c)2007 guruware
# File Created: 15.09.2015 16:50:35

mtllib 3d-model.mtl

#
# object Composant_1_002
#

v  -5400.0000 0.0000 714.4686
v  5400.0000 0.0000 714.4686
v  5400.0000 17637.3848 -178.9994
v  -5400.0000 17637.3848 -178.9994
# 4 vertices

vn 0.0000 0.0506 0.9987
# 1 vertex normals

vt 0.1902 0.0000 0.0000
vt 0.7823 0.0000 0.0000
vt 0.7823 0.9682 0.0000
vt 0.1902 0.9682 0.0000
# 4 texture coords

g Composant_1_002
usemtl wire_134006006
s off
f 1/1/1 2/2/1 3/3/1 4/4/1 
# 1 polygons

#
# object Composant_1_001
#

v  714.4680 0.0000 -5400.0000
v  714.4662 -0.0000 5400.0000
v  -947.4869 17581.6250 5400.0000
v  -947.4852 17581.6250 -5400.0000
# 4 vertices

vn -0.9956 -0.0941 -0.0000
# 1 vertex normals

vt 0.1902 0.0000 0.0000
vt 0.7823 0.0000 0.0000
vt 0.7823 0.9682 0.0000
vt 0.1902 0.9682 0.0000
# 4 texture coords

g Composant_1_001
usemtl wire_028089177
s off
f 5/5/2 6/6/2 7/7/2 8/8/2 
# 1 polygons

